<svg version="1.1" id="Layer_1" xmlns="http://www.w3.org/2000/svg" xmlns:xlink="http://www.w3.org/1999/xlink" x="0px" y="0px"
	 width="100%" viewBox="0 0 1024 1024" enable-background="new 0 0 1024 1024" xml:space="preserve">
<path fill="#000000" opacity="1.000000" stroke="none" 
	d="
M574.000000,1025.000000 
	C384.166656,1025.000000 194.833328,1024.987061 5.500053,1025.093750 
	C1.750729,1025.095825 0.905801,1024.249146 0.906913,1020.500000 
	C1.007246,682.166687 1.007246,343.833344 0.906913,5.500028 
	C0.905801,1.750903 1.750902,0.905800 5.500028,0.906912 
	C343.833344,1.007255 682.166687,1.007255 1020.500000,0.906912 
	C1024.249146,0.905800 1025.094360,1.750902 1025.093262,5.500027 
	C1024.992920,343.833344 1024.992798,682.166687 1025.093140,1020.500000 
	C1025.094238,1024.249146 1024.249390,1025.096802 1020.499939,1025.094116 
	C871.833313,1024.983643 723.166687,1025.000000 574.000000,1025.000000 
z"/>
<path fill="#FDFDFD" opacity="1.000000" stroke="none" 
	d="
M403.128448,621.040894 
	C406.820282,565.957397 410.487366,511.346100 414.157654,456.734985 
	C414.771179,447.606384 415.348877,438.474915 416.037964,429.351959 
	C416.476410,423.546936 418.723938,421.353180 424.613586,421.189697 
	C439.416382,420.778809 454.221527,420.415314 469.028137,420.196594 
	C476.664368,420.083771 479.329315,423.003937 478.816132,430.487213 
	C476.960846,457.541199 475.123749,484.596649 473.136108,511.641022 
	C472.873474,515.214172 473.237762,516.834167 477.537476,516.662537 
	C481.450226,516.506226 485.609863,514.922668 489.542572,517.771301 
	C490.629150,518.558411 492.478485,515.919922 494.713715,515.899048 
	C503.024414,515.821594 511.335205,515.024475 519.637878,515.130798 
	C523.583801,515.181274 524.320801,513.670227 524.501892,510.310913 
	C525.585632,490.208191 526.827148,470.113983 527.992981,450.015625 
	C528.416870,442.708252 528.687805,435.390991 529.193665,428.089691 
	C529.691772,420.899048 531.732117,419.022278 538.828857,419.006775 
	C553.991638,418.973572 569.154663,418.975494 584.317444,419.005341 
	C592.106384,419.020691 594.572754,421.491791 594.123352,429.238831 
	C592.245117,461.619354 590.093323,493.985077 588.409729,526.375366 
	C587.502747,543.824036 587.128235,561.308472 586.888306,578.781982 
	C586.490295,607.752441 586.410278,636.727234 586.161133,665.699890 
	C586.097290,673.127808 584.319153,675.096741 577.169556,675.137268 
	C559.841125,675.235413 542.511292,675.242859 525.183044,675.130127 
	C518.505737,675.086670 515.036133,671.140381 516.650513,664.760315 
	C517.961304,659.579895 517.445007,654.257263 517.466736,649.287170 
	C517.503662,640.863525 518.127014,632.470459 518.405823,624.078918 
	C518.947144,607.789368 520.033264,591.516174 521.041321,575.245422 
	C521.254578,571.804260 520.827820,570.412231 516.686890,570.858459 
	C501.885071,572.453674 487.586212,575.904053 473.625488,580.994629 
	C471.480438,581.776794 470.984985,582.874695 470.959015,584.982361 
	C470.639587,610.951843 470.226898,636.920166 469.843689,662.888855 
	C469.819122,664.554749 469.894775,666.223511 469.828888,667.887207 
	C469.506958,676.015747 467.772705,677.678406 459.567261,677.842102 
	C443.090881,678.170837 426.615570,678.571655 410.137939,678.813049 
	C402.050812,678.931519 399.579163,676.438110 400.040253,668.332031 
	C400.928314,652.718140 402.068878,637.118652 403.128448,621.040894 
z"/>
<path fill="#38B5FE" opacity="1.000000" stroke="none" 
	d="
M211.672546,593.217285 
	C191.527939,585.318237 170.964508,580.752014 149.946854,578.007568 
	C142.530045,577.039185 135.896866,574.068542 129.858688,569.715942 
	C124.059731,565.535706 122.526154,561.480896 124.473000,554.580872 
	C126.874756,546.068665 131.209396,538.735168 138.022614,532.916260 
	C174.502396,501.759918 211.755585,471.541443 248.998459,441.310303 
	C255.133621,436.330170 261.734406,432.713318 270.049347,434.887268 
	C276.516357,436.578003 281.735687,442.509979 282.209900,449.139740 
	C282.866821,458.323456 280.451294,466.419952 273.922058,473.357666 
	C255.610229,492.815247 234.931488,509.695160 215.311050,527.726074 
	C212.389755,530.410767 209.490662,533.119629 206.028961,536.329407 
	C207.741211,537.033020 208.839462,537.547058 209.978699,537.943237 
	C239.174042,548.096313 268.325256,558.380188 297.604156,568.286499 
	C305.633606,571.003235 311.546387,575.847717 316.011261,582.741760 
	C323.440002,594.212402 328.379883,606.578735 329.678040,620.332153 
	C331.708008,641.838867 316.935913,649.161194 299.505615,646.122559 
	C290.448944,644.543701 283.536743,638.826233 276.811371,633.126099 
	C257.243286,616.541199 235.891724,602.922668 211.672546,593.217285 
z"/>
<path fill="#37B4FC" opacity="1.000000" stroke="none" 
	d="
M717.935547,503.860718 
	C723.790405,492.100311 730.544250,481.130493 731.363525,467.803802 
	C731.605164,463.873505 733.919739,460.222198 736.416565,457.073578 
	C742.281067,449.677887 744.259949,441.822418 740.011047,432.950653 
	C739.531738,431.949860 739.425598,430.770325 738.982910,429.031372 
	C740.530518,430.183960 741.522034,430.953888 742.545349,431.678925 
	C746.331238,434.361115 749.696655,433.792236 752.649780,430.314697 
	C756.261353,426.061859 758.068604,420.806427 760.608948,415.957489 
	C762.917053,411.551758 764.769104,406.289307 770.905945,406.395447 
	C778.483459,406.526459 785.189697,409.394836 790.615845,414.777740 
	C792.332092,416.480408 791.428040,418.522491 790.309631,420.273285 
	C787.444214,424.758728 784.544556,429.222534 781.631836,433.677490 
	C765.673645,458.085358 750.115540,482.790802 737.870422,509.274200 
	C723.497864,540.358826 705.053467,568.964600 686.688354,597.679504 
	C675.912842,614.527649 666.636536,632.170898 659.501648,650.895508 
	C657.299805,656.674011 656.209595,662.731689 654.764954,668.709656 
	C653.916138,672.221924 652.783752,676.075439 648.576843,677.074768 
	C644.316223,678.086853 641.891785,674.923096 639.372803,672.259155 
	C635.130920,667.773071 634.067383,662.855103 635.756165,656.680359 
	C641.256409,636.570435 650.783752,618.349670 661.214600,600.523865 
	C665.078613,593.920593 669.045593,587.352905 673.378540,581.052979 
	C690.200928,556.593872 704.133850,530.480896 717.935547,503.860718 
z"/>
<path fill="#37B4FC" opacity="1.000000" stroke="none" 
	d="
M830.378052,611.890076 
	C824.278320,608.053467 818.593201,604.269653 812.708557,600.827026 
	C809.712952,599.074585 809.793335,597.880127 812.062927,595.413330 
	C829.320007,576.655945 846.433472,557.766418 863.594788,538.920898 
	C867.332458,534.816467 867.341248,534.809937 862.045837,533.506226 
	C854.625732,531.679321 847.057312,530.463440 839.808533,527.930420 
	C830.495117,524.676025 823.913269,518.589050 820.018372,509.429230 
	C825.863525,507.337524 831.135681,507.038849 836.969055,509.832306 
	C846.583008,514.436157 857.130554,516.495117 867.444580,519.094177 
	C879.285767,522.078064 889.922546,527.231384 898.451904,536.238647 
	C900.794495,538.712341 901.439270,540.500366 898.603455,543.540222 
	C877.807922,565.832031 857.245544,588.341553 836.633484,610.804077 
	C834.906067,612.686584 833.369385,614.807068 830.378052,611.890076 
z"/>
<path fill="#000000" opacity="1.000000" stroke="none" 
	d="
M463.459106,433.410339 
	C466.000153,433.925842 468.375092,433.742065 470.852112,436.764374 
	C459.803619,434.504425 449.765900,435.680481 439.795197,434.858826 
	C447.442383,432.154785 455.325165,434.272919 463.459106,433.410339 
z"/>
<path fill="#000000" opacity="1.000000" stroke="none" 
	d="
M507.888733,541.060059 
	C506.065399,540.013062 504.591522,539.091919 502.832794,537.992676 
	C507.162262,535.013428 511.480011,535.499023 515.930298,536.330444 
	C515.628784,540.167786 511.513062,536.299561 510.652740,539.388733 
	C512.473938,540.689575 516.178711,538.835938 516.931274,542.618896 
	C513.682800,544.109680 510.956024,542.679199 507.888733,541.060059 
z"/>
<path fill="#000000" opacity="1.000000" stroke="none" 
	d="
M437.813171,577.914856 
	C439.733948,577.469421 441.560272,576.702332 441.942444,579.203857 
	C442.212219,580.969421 440.642090,581.622437 439.382111,582.368286 
	C436.907074,583.833313 436.760773,581.244324 435.945038,580.229675 
	C434.449005,578.368774 436.149811,578.205627 437.813171,577.914856 
z"/>
<path fill="#000000" opacity="1.000000" stroke="none" 
	d="
M570.132690,624.996765 
	C568.836121,628.075562 566.417969,626.361816 564.633484,626.328735 
	C563.604309,626.309570 562.485168,623.944641 563.469910,622.660156 
	C564.439575,621.395203 565.308838,622.441040 565.891968,623.692261 
	C566.806152,625.654175 569.035950,622.575806 570.132690,624.996765 
z"/>
<path fill="#000000" opacity="1.000000" stroke="none" 
	d="
M580.062622,563.884521 
	C581.708618,566.419128 580.604553,568.986328 580.458374,571.570068 
	C577.531433,569.315002 577.154175,566.767273 580.062622,563.884521 
z"/>
<path fill="#000000" opacity="1.000000" stroke="none" 
	d="
M429.342529,439.127869 
	C429.083252,437.114014 428.945953,435.083344 431.252716,435.255463 
	C432.875427,435.376556 433.450500,438.254944 433.286133,438.785797 
	C432.702362,440.671417 431.008453,440.679504 429.342529,439.127869 
z"/>
<path fill="#000000" opacity="1.000000" stroke="none" 
	d="
M519.816956,530.662231 
	C520.958740,530.472107 521.702942,530.227417 522.678772,529.906616 
	C522.109619,531.648743 520.831360,532.408508 519.665039,533.126648 
	C518.424683,533.890320 516.968567,534.438110 515.503052,533.625549 
	C514.766357,533.217041 514.944519,532.362366 515.349487,531.926453 
	C516.424255,530.769470 517.481262,529.222778 519.816956,530.662231 
z"/>
<path fill="#000000" opacity="1.000000" stroke="none" 
	d="
M525.232788,664.060669 
	C524.903687,661.079834 524.903687,661.079834 530.721924,660.836121 
	C529.876526,663.369934 527.301697,663.037903 525.232788,664.060669 
z"/>
<path fill="#000000" opacity="1.000000" stroke="none" 
	d="
M458.627625,472.402161 
	C464.082092,467.783203 460.954895,474.527802 462.707855,474.944550 
	C460.888550,474.911041 459.053711,474.964294 458.627625,472.402161 
z"/>
<path fill="#000000" opacity="1.000000" stroke="none" 
	d="
M530.093506,669.041016 
	C531.081543,666.580566 531.081543,666.580566 535.251770,669.386230 
	C533.433411,670.477539 531.872681,670.456848 530.093506,669.041016 
z"/>
<path fill="#000000" opacity="1.000000" stroke="none" 
	d="
M542.304443,541.378296 
	C541.297424,541.678650 540.653687,541.861572 539.998779,541.921814 
	C538.829590,542.029419 537.181274,542.095093 537.244812,540.659851 
	C537.337219,538.571655 539.088318,539.428223 540.292603,539.680725 
	C541.229858,539.877197 542.140930,540.199402 543.058350,540.482849 
	C543.071472,540.486877 543.045044,540.729065 542.985779,540.830139 
	C542.903625,540.970215 542.772766,541.081787 542.304443,541.378296 
z"/>
<path fill="#000000" opacity="1.000000" stroke="none" 
	d="
M548.998535,629.993164 
	C549.147095,626.796692 552.321411,629.405151 553.344910,627.573792 
	C554.169189,628.174988 554.395691,629.103943 553.488586,629.511536 
	C552.212036,630.085083 550.814087,630.771118 548.998535,629.993164 
z"/>
<path fill="#000000" opacity="1.000000" stroke="none" 
	d="
M563.582031,646.071777 
	C565.284546,647.548157 563.524475,648.079163 563.032837,648.903870 
	C562.666016,649.519348 562.458557,651.182678 561.220032,649.982300 
	C560.665405,649.444702 559.282532,648.240540 561.125732,647.281311 
	C561.856934,646.900879 562.548706,646.444641 563.582031,646.071777 
z"/>
<path fill="#000000" opacity="1.000000" stroke="none" 
	d="
M447.066772,623.661438 
	C446.206970,624.291870 445.583374,624.885132 444.863800,625.044067 
	C443.833984,625.271545 442.154694,625.559570 442.081238,624.218689 
	C441.988464,622.524780 443.606995,622.525818 444.945984,622.814941 
	C445.725311,622.983215 446.489258,623.222778 447.066772,623.661438 
z"/>
<path fill="#000000" opacity="1.000000" stroke="none" 
	d="
M516.827759,551.106689 
	C517.858765,551.615784 519.631958,551.073242 519.143677,552.469666 
	C518.687744,553.773254 517.214844,554.231750 515.884888,553.164490 
	C514.517151,552.066956 514.719788,551.312622 516.827759,551.106689 
z"/>
<path fill="#000000" opacity="1.000000" stroke="none" 
	d="
M413.275696,641.441650 
	C414.718292,641.912476 416.491364,641.223877 416.787842,642.881287 
	C416.964417,643.868469 415.708191,644.142517 415.032715,643.833557 
	C414.062561,643.389954 411.162079,644.376892 413.275696,641.441650 
z"/>
<path fill="#000000" opacity="1.000000" stroke="none" 
	d="
M438.066193,633.818176 
	C438.842926,631.173401 440.400635,631.792908 441.909027,632.587158 
	C442.465210,632.879944 442.890411,633.465271 442.211151,634.103516 
	C440.919403,635.317261 439.564453,635.005798 438.066193,633.818176 
z"/>
<path fill="#000000" opacity="1.000000" stroke="none" 
	d="
M496.356720,532.223938 
	C493.788940,532.803589 493.792542,531.199341 494.230713,529.879700 
	C494.647217,528.625366 496.414734,528.565247 497.141052,528.975769 
	C499.090637,530.077576 497.110077,530.986206 496.356720,532.223938 
z"/>
<path fill="#000000" opacity="1.000000" stroke="none" 
	d="
M550.267944,555.007935 
	C551.556030,555.106384 552.735168,554.751404 552.915100,556.101562 
	C553.034668,556.998352 552.177490,557.027527 551.612488,556.960999 
	C550.462769,556.825562 548.855286,557.492310 548.449341,555.772156 
	C548.276672,555.040710 549.314453,555.161438 550.267944,555.007935 
z"/>
</svg>