<svg version="1.1" id="Layer_1" xmlns="http://www.w3.org/2000/svg" xmlns:xlink="http://www.w3.org/1999/xlink" x="0px" y="0px"
	 width="100%" viewBox="0 0 1024 1024" enable-background="new 0 0 1024 1024" xml:space="preserve">
<path fill="#000000" opacity="1.000000" stroke="none" 
	d="
M705.000000,1025.000000 
	C470.000000,1025.000000 235.500000,1025.000000 1.000000,1025.000000 
	C1.000000,683.666687 1.000000,342.333344 1.000000,1.000000 
	C342.333344,1.000000 683.666687,1.000000 1025.000000,1.000000 
	C1025.000000,342.333344 1025.000000,683.666687 1025.000000,1025.000000 
	C918.500000,1025.000000 812.000000,1025.000000 705.000000,1025.000000 
M410.486206,839.837830 
	C414.145569,839.728271 417.805054,839.622986 421.464264,839.508545 
	C435.221497,839.078125 440.682281,833.744385 440.953278,819.850159 
	C441.664398,783.388672 442.242615,746.924561 442.831390,710.460754 
	C443.417511,674.159851 443.974518,637.858459 444.460083,601.556091 
	C444.493347,599.070007 445.025116,597.744690 447.635529,596.858154 
	C477.026672,586.877747 506.171051,576.099243 537.456665,573.197510 
	C548.494812,572.173767 559.448364,570.237915 570.783997,568.671082 
	C570.783997,570.781189 570.851074,572.246826 570.773743,573.704834 
	C569.831116,591.485046 568.856995,609.263489 567.910828,627.043518 
	C565.620667,670.078186 563.307983,713.111755 561.106018,756.151001 
	C560.872620,760.713013 559.128906,765.800354 563.170715,768.250916 
	C562.099915,771.129089 560.778748,773.248657 560.590576,775.464355 
	C560.098206,781.262939 560.089661,787.103210 559.915100,792.927673 
	C559.880432,794.084290 559.557068,796.018982 560.058044,796.282898 
	C564.891418,798.829041 562.831848,800.677246 559.682495,802.657043 
	C559.229126,802.942078 558.861755,803.774719 558.882263,804.338318 
	C559.069580,809.476257 558.676697,814.757507 559.755493,819.713501 
	C561.631104,828.329163 568.683044,832.959595 578.986023,832.973816 
	C624.319092,833.036438 669.652405,833.001648 714.985596,832.993408 
	C716.150452,832.993164 717.318054,832.925903 718.479797,832.833496 
	C727.996826,832.076477 733.016846,827.485168 734.448303,818.110840 
	C734.748352,816.145752 734.812073,814.130554 734.823914,812.137512 
	C735.174316,753.327515 735.263367,694.514832 735.916809,635.708313 
	C736.406982,591.592590 737.353088,547.477478 738.602295,503.376373 
	C739.450439,473.434631 740.973267,443.507050 742.559631,413.592499 
	C744.436768,378.197174 746.635559,342.818298 748.827454,307.440491 
	C750.834412,275.048584 753.140259,242.674942 755.072693,210.278839 
	C756.055664,193.800476 749.358093,187.011429 732.911987,187.000549 
	C719.078674,186.991409 705.245422,186.998581 691.412109,186.998718 
	C664.745483,186.998962 638.078552,186.917831 611.412415,187.034378 
	C598.259033,187.091858 592.745789,192.118637 591.872314,205.046005 
	C590.111084,231.110840 588.559692,257.190338 587.022217,283.269714 
	C584.563965,324.969360 582.199402,366.674561 579.764465,408.375580 
	C579.369995,415.132172 578.816833,421.879517 578.336243,428.641876 
	C549.809753,429.840210 521.797791,431.016907 493.054626,432.224335 
	C494.456451,432.830536 495.206329,433.154816 496.007477,433.501251 
	C493.230255,437.541473 489.935059,438.221008 487.724457,434.910065 
	C486.009216,432.341003 484.194672,432.292969 481.501923,432.352600 
	C470.888062,432.587524 460.265930,432.448883 449.410645,432.448883 
	C450.598053,414.416168 451.788177,396.175354 453.002502,377.936157 
	C455.158203,345.558350 457.341339,313.182312 459.488556,280.803925 
	C461.063293,257.057983 462.551941,233.306244 464.186249,209.564468 
	C464.579254,203.855896 462.946503,199.132843 458.771088,195.200485 
	C454.210236,190.905182 448.689606,189.711853 442.681030,189.849991 
	C404.069824,190.737717 365.458740,191.632523 326.846893,192.490433 
	C312.590912,192.807190 306.827759,198.467255 305.902374,212.805725 
	C303.908875,243.693832 301.807343,274.575012 299.727509,305.457489 
	C297.155487,343.648041 294.550140,381.836304 291.978729,420.026886 
	C289.541565,456.223694 287.147705,492.423492 284.701538,528.619690 
	C282.154602,566.307739 279.552948,603.992126 277.002747,641.679993 
	C274.463318,679.208191 271.949219,716.738220 269.441223,754.268616 
	C267.943329,776.683044 266.182709,799.085632 265.110931,821.520752 
	C264.480225,834.723389 272.048187,841.999146 285.131592,842.165222 
	C287.131256,842.190613 289.132141,842.199585 291.131409,842.160583 
	C330.584320,841.391235 370.037079,840.613708 410.486206,839.837830 
z"/>
<path fill="#FEFEFE" opacity="1.000000" stroke="none" 
	d="
M409.988037,839.837830 
	C370.037079,840.613708 330.584320,841.391235 291.131409,842.160583 
	C289.132141,842.199585 287.131256,842.190613 285.131592,842.165222 
	C272.048187,841.999146 264.480225,834.723389 265.110931,821.520752 
	C266.182709,799.085632 267.943329,776.683044 269.441223,754.268616 
	C271.949219,716.738220 274.463318,679.208191 277.002747,641.679993 
	C279.552948,603.992126 282.154602,566.307739 284.701538,528.619690 
	C287.147705,492.423492 289.541565,456.223694 291.978729,420.026886 
	C294.550140,381.836304 297.155487,343.648041 299.727509,305.457489 
	C301.807343,274.575012 303.908875,243.693832 305.902374,212.805725 
	C306.827759,198.467255 312.590912,192.807190 326.846893,192.490433 
	C365.458740,191.632523 404.069824,190.737717 442.681030,189.849991 
	C448.689606,189.711853 454.210236,190.905182 458.771088,195.200485 
	C462.946503,199.132843 464.579254,203.855896 464.186249,209.564468 
	C462.551941,233.306244 461.063293,257.057983 459.488556,280.803925 
	C457.341339,313.182312 455.158203,345.558350 453.002502,377.936157 
	C451.788177,396.175354 450.598053,414.416168 449.410645,432.448883 
	C460.265930,432.448883 470.888062,432.587524 481.501923,432.352600 
	C484.194672,432.292969 486.009216,432.341003 487.724457,434.910065 
	C489.935059,438.221008 493.230255,437.541473 496.007477,433.501251 
	C495.206329,433.154816 494.456451,432.830536 493.054626,432.224335 
	C521.797791,431.016907 549.809753,429.840210 578.336243,428.641876 
	C578.816833,421.879517 579.369995,415.132172 579.764465,408.375580 
	C582.199402,366.674561 584.563965,324.969360 587.022217,283.269714 
	C588.559692,257.190338 590.111084,231.110840 591.872314,205.046005 
	C592.745789,192.118637 598.259033,187.091858 611.412415,187.034378 
	C638.078552,186.917831 664.745483,186.998962 691.412109,186.998718 
	C705.245422,186.998581 719.078674,186.991409 732.911987,187.000549 
	C749.358093,187.011429 756.055664,193.800476 755.072693,210.278839 
	C753.140259,242.674942 750.834412,275.048584 748.827454,307.440491 
	C746.635559,342.818298 744.436768,378.197174 742.559631,413.592499 
	C740.973267,443.507050 739.450439,473.434631 738.602295,503.376373 
	C737.353088,547.477478 736.406982,591.592590 735.916809,635.708313 
	C735.263367,694.514832 735.174316,753.327515 734.823914,812.137512 
	C734.812073,814.130554 734.748352,816.145752 734.448303,818.110840 
	C733.016846,827.485168 727.996826,832.076477 718.479797,832.833496 
	C717.318054,832.925903 716.150452,832.993164 714.985596,832.993408 
	C669.652405,833.001648 624.319092,833.036438 578.986023,832.973816 
	C568.683044,832.959595 561.631104,828.329163 559.755493,819.713501 
	C558.676697,814.757507 559.069580,809.476257 558.882263,804.338318 
	C558.861755,803.774719 559.229126,802.942078 559.682495,802.657043 
	C562.831848,800.677246 564.891418,798.829041 560.058044,796.282898 
	C559.557068,796.018982 559.880432,794.084290 559.915100,792.927673 
	C560.089661,787.103210 560.098206,781.262939 560.590576,775.464355 
	C560.778748,773.248657 562.099915,771.129089 563.170715,768.250916 
	C559.128906,765.800354 560.872620,760.713013 561.106018,756.151001 
	C563.307983,713.111755 565.620667,670.078186 567.910828,627.043518 
	C568.856995,609.263489 569.831116,591.485046 570.773743,573.704834 
	C570.851074,572.246826 570.783997,570.781189 570.783997,568.671082 
	C559.448364,570.237915 548.494812,572.173767 537.456665,573.197510 
	C506.171051,576.099243 477.026672,586.877747 447.635529,596.858154 
	C445.025116,597.744690 444.493347,599.070007 444.460083,601.556091 
	C443.974518,637.858459 443.417511,674.159851 442.831390,710.460754 
	C442.242615,746.924561 441.664398,783.388672 440.953278,819.850159 
	C440.682281,833.744385 435.221497,839.078125 421.464264,839.508545 
	C417.805054,839.622986 414.145569,839.728271 409.988037,839.837830 
M408.407715,223.430557 
	C403.604828,223.764160 398.765411,224.607620 394.010895,224.266693 
	C390.345215,224.003830 385.272644,227.215988 383.104858,221.091034 
	C382.967590,220.703186 381.141663,220.558167 380.277435,220.840057 
	C374.668060,222.669708 369.107483,224.649002 363.448944,226.607666 
	C371.900665,230.236603 375.701172,230.511734 383.767365,228.579163 
	C386.478638,227.929565 389.326691,227.415421 392.091766,227.500977 
	C404.372070,227.880951 416.649139,228.425705 428.916962,229.099960 
	C431.281982,229.229935 433.764893,229.861893 435.900177,230.878342 
	C438.802460,232.259842 440.793243,232.095444 442.648376,228.481094 
	C439.656616,227.026733 436.967682,224.789368 434.079132,224.492233 
	C425.866760,223.647369 417.572937,223.594116 408.407715,223.430557 
M537.488159,494.988953 
	C544.806152,498.186127 551.637756,503.411163 560.444092,500.235687 
	C560.896606,494.739410 555.564209,490.496796 549.452759,491.356384 
	C547.273865,491.662842 544.942322,490.884033 542.680420,490.600616 
	C542.759827,489.762115 542.839233,488.923645 542.918579,488.085144 
	C547.022766,488.085144 551.126892,488.085144 555.650940,488.085144 
	C556.635986,486.569122 558.023193,484.434082 559.639038,481.947205 
	C554.250793,481.973724 548.831787,484.340393 546.347473,480.442993 
	C542.428833,481.089447 539.673340,481.972473 536.944214,481.897491 
	C532.442200,481.773834 525.691956,485.104584 525.058411,487.713806 
	C529.093079,490.158447 532.926514,492.481140 537.488159,494.988953 
M354.899628,588.989868 
	C354.580841,589.629089 353.814392,590.544678 354.012177,590.864990 
	C356.089752,594.230225 358.321472,597.500244 360.892578,601.371826 
	C364.064758,599.208557 367.417542,597.544983 369.847260,595.000122 
	C371.047272,593.743347 371.411377,590.369141 370.555542,588.858337 
	C369.777557,587.484924 366.796844,586.684143 364.856201,586.798828 
	C361.752625,586.982178 358.706116,588.131775 354.899628,588.989868 
M692.309875,710.943787 
	C693.058044,709.203674 693.806213,707.463501 694.554382,705.723389 
	C692.618774,705.105652 690.702759,704.082092 688.741943,703.987610 
	C686.888184,703.898376 684.987427,704.785095 681.744202,705.574280 
	C683.240295,702.750977 683.868835,701.564880 684.758728,699.885620 
	C681.631531,699.885620 678.855347,699.885620 675.773682,699.885620 
	C676.553894,702.301147 677.288147,703.990051 677.631348,705.755127 
	C678.410217,709.760925 679.798645,712.092285 684.635620,710.366455 
	C686.625305,709.656494 689.194458,710.570679 692.309875,710.943787 
M558.728760,477.053406 
	C566.610840,477.419342 570.994507,471.300018 576.873901,467.226135 
	C571.940125,465.392487 566.609741,472.402740 562.777405,465.892365 
	C560.533997,467.614624 558.750977,468.842712 557.130981,470.257568 
	C554.155029,472.856750 554.363770,475.206757 558.728760,477.053406 
M717.156799,571.512451 
	C718.556702,571.707336 719.956604,571.902222 721.608337,572.132141 
	C721.608337,565.160034 721.608337,558.745544 721.608337,552.270630 
	C719.299744,552.270630 717.248779,552.270630 714.980347,552.270630 
	C714.980347,555.036255 714.802979,557.529602 715.021912,559.987610 
	C715.350708,563.678284 715.957275,567.344238 717.156799,571.512451 
M346.983856,230.571289 
	C346.983856,229.621933 346.983856,228.672592 346.983856,227.295853 
	C344.127258,227.889053 341.627808,228.408096 338.812103,228.992813 
	C339.968109,233.084808 336.426758,238.377625 341.635498,240.288055 
	C344.225769,241.238113 347.968719,239.045563 351.328949,238.241440 
	C349.260468,235.164856 347.974060,233.251450 346.983856,230.571289 
M593.021545,800.571899 
	C594.172302,799.185791 595.323059,797.799683 596.975830,795.808838 
	C592.817505,796.159790 589.797607,796.391968 586.782715,796.676819 
	C584.711365,796.872620 581.797729,796.380432 580.759155,797.539062 
	C578.697571,799.839050 577.025452,802.999329 579.325623,806.201416 
	C583.858582,804.404419 588.132874,802.709961 593.021545,800.571899 
M420.431122,317.016876 
	C414.570587,317.483368 412.360138,319.391846 412.817505,323.590454 
	C413.138885,326.540710 419.972961,329.367096 424.095490,328.538055 
	C423.124420,324.819397 422.156219,321.111664 420.431122,317.016876 
M593.294495,811.892700 
	C590.209595,815.748718 592.549194,817.972473 595.803162,819.686401 
	C600.871887,822.356201 604.626587,821.118286 606.610229,816.662598 
	C602.341980,814.884766 598.083313,813.110901 593.294495,811.892700 
M615.738953,497.037323 
	C619.777100,496.299652 623.815247,495.562012 627.853394,494.824341 
	C620.559082,488.862183 612.468079,489.448975 610.460266,495.114807 
	C611.903442,495.742401 613.380798,496.384888 615.738953,497.037323 
M511.083435,469.545471 
	C511.347229,467.788574 511.611053,466.031647 511.874878,464.274750 
	C508.630493,464.551544 505.386108,464.828308 500.917664,465.209534 
	C502.578430,469.272797 503.765900,472.178040 505.143707,475.549042 
	C507.337280,473.336578 508.961823,471.698059 511.083435,469.545471 
M644.452881,714.817200 
	C642.378357,714.923950 640.303894,715.030701 637.597839,715.169983 
	C638.491150,716.522278 639.014282,717.503540 639.712463,718.338501 
	C642.765869,721.990601 646.292969,720.028076 649.593018,718.922058 
	C651.243408,718.368896 653.473816,717.395020 653.930786,716.084473 
	C654.325867,714.951599 652.584656,713.073669 652.256042,712.435242 
	C649.241760,713.492432 647.296631,714.174683 644.452881,714.817200 
M669.057312,766.558655 
	C669.531677,766.690063 670.322632,766.695312 670.432739,766.971741 
	C672.029175,770.980530 673.475342,775.306274 675.769470,767.254761 
	C675.993652,766.467834 677.104492,765.855103 677.911865,765.326721 
	C681.075989,763.255981 680.916016,760.981201 678.407104,758.395325 
	C676.618530,759.533386 674.741516,760.528137 673.103577,761.824829 
	C671.385559,763.184937 669.896729,764.834534 669.057312,766.558655 
M369.724182,724.376648 
	C368.568146,724.253479 367.384064,724.249390 366.261353,723.984741 
	C362.923309,723.198059 360.808502,724.724426 360.616699,727.827881 
	C360.416595,731.065308 363.145935,731.140198 365.600067,731.029663 
	C366.597687,730.984741 367.709656,731.302002 368.574493,730.960388 
	C370.147736,730.338928 371.575165,729.348389 373.063446,728.511841 
	C372.183014,727.280823 371.302612,726.049744 369.724182,724.376648 
M377.269287,700.147583 
	C373.182068,699.513000 371.231964,701.822754 370.040100,705.276917 
	C377.621155,708.410706 381.110840,707.653870 384.422363,702.469543 
	C382.340668,701.804382 380.182465,701.114685 377.269287,700.147583 
M567.435486,523.018433 
	C567.404663,522.384888 567.449829,521.212646 567.331909,521.195984 
	C563.629700,520.673279 559.911621,520.262878 556.270630,519.844055 
	C553.976746,523.866333 555.868652,526.184937 559.666443,526.263672 
	C562.071838,526.313477 564.515686,524.508667 567.435486,523.018433 
M307.514191,753.236267 
	C307.582611,752.270020 307.812500,750.479736 307.696136,750.456848 
	C303.725769,749.679199 299.722626,749.069031 295.724213,748.434753 
	C295.955658,749.658875 295.950623,751.827698 296.456726,751.954407 
	C299.866089,752.807861 303.383850,753.228271 307.514191,753.236267 
M678.583984,811.728821 
	C676.912170,811.086426 675.283203,810.173462 673.553040,809.899292 
	C672.446533,809.723999 670.571045,810.151733 670.148987,810.918945 
	C669.540833,812.024780 669.494873,813.908752 670.060852,815.031067 
	C670.455627,815.813843 672.696045,816.558105 673.384888,816.135132 
	C675.568970,814.794128 679.734741,816.892761 680.049805,812.419983 
	C680.059570,812.280457 679.531128,812.102905 678.583984,811.728821 
M648.071716,535.144531 
	C649.450073,534.466614 650.828430,533.788635 652.306702,533.061462 
	C649.192139,527.955383 644.665955,530.209167 640.851990,530.018860 
	C640.206238,529.986572 639.449463,532.178589 638.316711,534.048218 
	C642.028687,534.476807 644.618774,534.775818 648.071716,535.144531 
M411.850952,685.331177 
	C410.538727,683.685852 409.336853,681.922791 407.817444,680.498352 
	C407.527771,680.226807 405.153137,681.295288 405.154480,681.741211 
	C405.162964,684.572021 405.568573,687.401672 405.843292,690.231689 
	C406.621368,690.591003 407.399445,690.950256 408.177521,691.309570 
	C409.327148,689.550232 410.476746,687.790955 411.850952,685.331177 
M667.062500,730.657959 
	C665.380920,731.383972 663.699402,732.109985 660.982910,733.282837 
	C663.777222,734.640015 665.074524,735.758301 666.413208,735.810181 
	C668.638245,735.896423 670.889771,735.298218 673.130188,734.988281 
	C671.628113,733.782715 670.132202,732.569397 668.617859,731.379395 
	C668.367432,731.182617 668.036377,731.088379 667.062500,730.657959 
M578.838257,521.983032 
	C579.142334,523.068481 579.234863,524.954468 579.787292,525.100464 
	C582.154114,525.725952 584.662659,526.012634 587.101746,525.925171 
	C587.416687,525.913879 587.627563,522.998901 587.900940,521.342529 
	C584.547791,521.342529 581.952454,521.342529 578.838257,521.983032 
M411.464508,582.911377 
	C408.786285,583.271729 406.071350,583.487549 403.469757,584.149170 
	C403.082855,584.247620 402.671112,587.029907 403.231537,587.565735 
	C405.146301,589.396545 411.025330,586.565308 411.464508,582.911377 
M403.229065,646.783020 
	C404.870148,645.776245 406.511261,644.769470 408.267700,643.691956 
	C403.570404,639.831482 400.414246,641.039795 397.559540,647.736084 
	C399.370880,647.501160 400.962555,647.294739 403.229065,646.783020 
M655.093201,703.055725 
	C656.009216,698.714111 653.771057,696.418762 649.221558,694.412964 
	C649.682190,697.251099 650.117249,699.276611 650.318542,701.325012 
	C650.620117,704.393982 652.389954,704.514099 655.093201,703.055725 
M507.132355,440.108612 
	C506.084656,441.045959 505.036957,441.983307 503.989288,442.920715 
	C506.097626,444.506409 508.205994,446.092102 510.698730,447.966888 
	C511.639008,445.841248 512.187805,444.600525 512.829102,443.150879 
	C510.957336,442.074432 509.416809,441.188446 507.132355,440.108612 
M624.071350,614.099670 
	C626.051025,618.941528 626.628418,619.083862 632.316223,616.131897 
	C628.980835,611.510437 627.364990,610.962402 624.071350,614.099670 
M522.298340,462.270691 
	C523.959290,461.881927 525.620300,461.493195 527.281250,461.104431 
	C527.039734,460.118011 526.865295,458.301208 526.546021,458.275391 
	C523.760193,458.050049 520.948425,458.145203 518.144287,458.145203 
	C518.119568,458.609222 518.094788,459.073242 518.070068,459.537262 
	C519.243225,460.350494 520.416321,461.163757 522.298340,462.270691 
M576.490662,792.308655 
	C577.116150,792.134094 577.741699,791.959473 579.430054,791.488281 
	C576.050415,790.541687 573.671021,789.585999 571.217651,789.324890 
	C570.179382,789.214294 568.985779,790.563782 567.862732,791.249695 
	C568.882080,791.982483 569.851440,793.221252 570.932678,793.328125 
	C572.503662,793.483459 574.155334,792.822388 576.490662,792.308655 
M640.989929,750.659729 
	C640.728027,754.668091 643.232483,753.657471 645.947998,753.262939 
	C645.050415,750.596313 644.240051,748.188599 643.105408,744.817627 
	C642.250305,747.031616 641.692871,748.474915 640.989929,750.659729 
M640.392090,637.156128 
	C639.821228,639.257080 639.250366,641.357971 638.575256,643.842529 
	C640.953430,643.842529 642.343689,643.842529 645.254089,643.842529 
	C643.593811,641.091675 642.402222,639.117310 640.392090,637.156128 
M667.684082,782.519836 
	C665.763367,782.666870 663.842651,782.813904 661.921936,782.960938 
	C661.860107,783.503601 661.798218,784.046326 661.736389,784.588989 
	C663.401123,785.346008 665.094116,786.741211 666.722168,786.669128 
	C668.167542,786.605225 671.600830,785.749207 667.684082,782.519836 
M612.981018,266.400452 
	C614.813904,265.796967 616.646790,265.193481 618.479675,264.589966 
	C618.385620,263.884369 618.291626,263.178772 618.197632,262.473145 
	C615.754822,262.216034 613.312073,261.958893 609.838135,261.593231 
	C611.087585,263.683716 611.731750,264.761536 612.981018,266.400452 
M670.656677,540.991516 
	C669.870667,542.212769 668.849609,543.358398 668.419739,544.694275 
	C668.258545,545.195129 669.766052,546.862427 670.010803,546.763000 
	C671.657532,546.093628 673.169373,545.092285 674.977295,544.053467 
	C673.354736,542.646362 672.392761,541.812073 670.656677,540.991516 
M490.502045,459.022736 
	C492.541107,458.131653 494.580200,457.240570 496.619263,456.349487 
	C496.357880,455.837677 496.096527,455.325867 495.835144,454.814056 
	C493.526825,455.758972 488.581024,452.339844 490.502045,459.022736 
z"/>
<path fill="#121212" opacity="1.000000" stroke="none" 
	d="
M408.859436,223.329926 
	C417.572937,223.594116 425.866760,223.647369 434.079132,224.492233 
	C436.967682,224.789368 439.656616,227.026733 442.648376,228.481094 
	C440.793243,232.095444 438.802460,232.259842 435.900177,230.878342 
	C433.764893,229.861893 431.281982,229.229935 428.916962,229.099960 
	C416.649139,228.425705 404.372070,227.880951 392.091766,227.500977 
	C389.326691,227.415421 386.478638,227.929565 383.767365,228.579163 
	C375.701172,230.511734 371.900665,230.236603 363.448944,226.607666 
	C369.107483,224.649002 374.668060,222.669708 380.277435,220.840057 
	C381.141663,220.558167 382.967590,220.703186 383.104858,221.091034 
	C385.272644,227.215988 390.345215,224.003830 394.010895,224.266693 
	C398.765411,224.607620 403.604828,223.764160 408.859436,223.329926 
z"/>
<path fill="#0C0C0C" opacity="1.000000" stroke="none" 
	d="
M537.124023,494.896393 
	C532.926514,492.481140 529.093079,490.158447 525.058411,487.713806 
	C525.691956,485.104584 532.442200,481.773834 536.944214,481.897491 
	C539.673340,481.972473 542.428833,481.089447 546.347473,480.442993 
	C548.831787,484.340393 554.250793,481.973724 559.639038,481.947205 
	C558.023193,484.434082 556.635986,486.569122 555.650940,488.085144 
	C551.126892,488.085144 547.022766,488.085144 542.918579,488.085144 
	C542.839233,488.923645 542.759827,489.762115 542.680420,490.600616 
	C544.942322,490.884033 547.273865,491.662842 549.452759,491.356384 
	C555.564209,490.496796 560.896606,494.739410 560.444092,500.235687 
	C551.637756,503.411163 544.806152,498.186127 537.124023,494.896393 
z"/>
<path fill="#0D0D0D" opacity="1.000000" stroke="none" 
	d="
M355.267578,588.931396 
	C358.706116,588.131775 361.752625,586.982178 364.856201,586.798828 
	C366.796844,586.684143 369.777557,587.484924 370.555542,588.858337 
	C371.411377,590.369141 371.047272,593.743347 369.847260,595.000122 
	C367.417542,597.544983 364.064758,599.208557 360.892578,601.371826 
	C358.321472,597.500244 356.089752,594.230225 354.012177,590.864990 
	C353.814392,590.544678 354.580841,589.629089 355.267578,588.931396 
z"/>
<path fill="#0C0C0C" opacity="1.000000" stroke="none" 
	d="
M691.904907,710.844971 
	C689.194458,710.570679 686.625305,709.656494 684.635620,710.366455 
	C679.798645,712.092285 678.410217,709.760925 677.631348,705.755127 
	C677.288147,703.990051 676.553894,702.301147 675.773682,699.885620 
	C678.855347,699.885620 681.631531,699.885620 684.758728,699.885620 
	C683.868835,701.564880 683.240295,702.750977 681.744202,705.574280 
	C684.987427,704.785095 686.888184,703.898376 688.741943,703.987610 
	C690.702759,704.082092 692.618774,705.105652 694.554382,705.723389 
	C693.806213,707.463501 693.058044,709.203674 691.904907,710.844971 
z"/>
<path fill="#0D0D0D" opacity="1.000000" stroke="none" 
	d="
M558.321777,477.085510 
	C554.363770,475.206757 554.155029,472.856750 557.130981,470.257568 
	C558.750977,468.842712 560.533997,467.614624 562.777405,465.892365 
	C566.609741,472.402740 571.940125,465.392487 576.873901,467.226135 
	C570.994507,471.300018 566.610840,477.419342 558.321777,477.085510 
z"/>
<path fill="#0B0B0B" opacity="1.000000" stroke="none" 
	d="
M716.801270,571.266602 
	C715.957275,567.344238 715.350708,563.678284 715.021912,559.987610 
	C714.802979,557.529602 714.980347,555.036255 714.980347,552.270630 
	C717.248779,552.270630 719.299744,552.270630 721.608337,552.270630 
	C721.608337,558.745544 721.608337,565.160034 721.608337,572.132141 
	C719.956604,571.902222 718.556702,571.707336 716.801270,571.266602 
z"/>
<path fill="#0A0A0A" opacity="1.000000" stroke="none" 
	d="
M346.835754,230.954666 
	C347.974060,233.251450 349.260468,235.164856 351.328949,238.241440 
	C347.968719,239.045563 344.225769,241.238113 341.635498,240.288055 
	C336.426758,238.377625 339.968109,233.084808 338.812103,228.992813 
	C341.627808,228.408096 344.127258,227.889053 346.983856,227.295853 
	C346.983856,228.672592 346.983856,229.621933 346.835754,230.954666 
z"/>
<path fill="#0D0D0D" opacity="1.000000" stroke="none" 
	d="
M592.714355,800.793701 
	C588.132874,802.709961 583.858582,804.404419 579.325623,806.201416 
	C577.025452,802.999329 578.697571,799.839050 580.759155,797.539062 
	C581.797729,796.380432 584.711365,796.872620 586.782715,796.676819 
	C589.797607,796.391968 592.817505,796.159790 596.975830,795.808838 
	C595.323059,797.799683 594.172302,799.185791 592.714355,800.793701 
z"/>
<path fill="#090909" opacity="1.000000" stroke="none" 
	d="
M420.809570,317.210388 
	C422.156219,321.111664 423.124420,324.819397 424.095490,328.538055 
	C419.972961,329.367096 413.138885,326.540710 412.817505,323.590454 
	C412.360138,319.391846 414.570587,317.483368 420.809570,317.210388 
z"/>
<path fill="#0D0D0D" opacity="1.000000" stroke="none" 
	d="
M593.559570,811.614868 
	C598.083313,813.110901 602.341980,814.884766 606.610229,816.662598 
	C604.626587,821.118286 600.871887,822.356201 595.803162,819.686401 
	C592.549194,817.972473 590.209595,815.748718 593.559570,811.614868 
z"/>
<path fill="#141414" opacity="1.000000" stroke="none" 
	d="
M615.298584,497.032349 
	C613.380798,496.384888 611.903442,495.742401 610.460266,495.114807 
	C612.468079,489.448975 620.559082,488.862183 627.853394,494.824341 
	C623.815247,495.562012 619.777100,496.299652 615.298584,497.032349 
z"/>
<path fill="#0B0B0B" opacity="1.000000" stroke="none" 
	d="
M510.834900,469.802490 
	C508.961823,471.698059 507.337280,473.336578 505.143707,475.549042 
	C503.765900,472.178040 502.578430,469.272797 500.917664,465.209534 
	C505.386108,464.828308 508.630493,464.551544 511.874878,464.274750 
	C511.611053,466.031647 511.347229,467.788574 510.834900,469.802490 
z"/>
<path fill="#0F0F0F" opacity="1.000000" stroke="none" 
	d="
M644.902222,714.837036 
	C647.296631,714.174683 649.241760,713.492432 652.256042,712.435242 
	C652.584656,713.073669 654.325867,714.951599 653.930786,716.084473 
	C653.473816,717.395020 651.243408,718.368896 649.593018,718.922058 
	C646.292969,720.028076 642.765869,721.990601 639.712463,718.338501 
	C639.014282,717.503540 638.491150,716.522278 637.597839,715.169983 
	C640.303894,715.030701 642.378357,714.923950 644.902222,714.837036 
z"/>
<path fill="#0F0F0F" opacity="1.000000" stroke="none" 
	d="
M668.682556,766.458130 
	C669.896729,764.834534 671.385559,763.184937 673.103577,761.824829 
	C674.741516,760.528137 676.618530,759.533386 678.407104,758.395325 
	C680.916016,760.981201 681.075989,763.255981 677.911865,765.326721 
	C677.104492,765.855103 675.993652,766.467834 675.769470,767.254761 
	C673.475342,775.306274 672.029175,770.980530 670.432739,766.971741 
	C670.322632,766.695312 669.531677,766.690063 668.682556,766.458130 
z"/>
<path fill="#0C0C0C" opacity="1.000000" stroke="none" 
	d="
M370.073181,724.597656 
	C371.302612,726.049744 372.183014,727.280823 373.063446,728.511841 
	C371.575165,729.348389 370.147736,730.338928 368.574493,730.960388 
	C367.709656,731.302002 366.597687,730.984741 365.600067,731.029663 
	C363.145935,731.140198 360.416595,731.065308 360.616699,727.827881 
	C360.808502,724.724426 362.923309,723.198059 366.261353,723.984741 
	C367.384064,724.249390 368.568146,724.253479 370.073181,724.597656 
z"/>
<path fill="#0B0B0B" opacity="1.000000" stroke="none" 
	d="
M377.646790,700.286316 
	C380.182465,701.114685 382.340668,701.804382 384.422363,702.469543 
	C381.110840,707.653870 377.621155,708.410706 370.040100,705.276917 
	C371.231964,701.822754 373.182068,699.513000 377.646790,700.286316 
z"/>
<path fill="#161616" opacity="1.000000" stroke="none" 
	d="
M567.188843,523.277100 
	C564.515686,524.508667 562.071838,526.313477 559.666443,526.263672 
	C555.868652,526.184937 553.976746,523.866333 556.270630,519.844055 
	C559.911621,520.262878 563.629700,520.673279 567.331909,521.195984 
	C567.449829,521.212646 567.404663,522.384888 567.188843,523.277100 
z"/>
<path fill="#0C0C0C" opacity="1.000000" stroke="none" 
	d="
M307.190369,753.512573 
	C303.383850,753.228271 299.866089,752.807861 296.456726,751.954407 
	C295.950623,751.827698 295.955658,749.658875 295.724182,748.434753 
	C299.722626,749.069031 303.725769,749.679199 307.696136,750.456848 
	C307.812500,750.479736 307.582611,752.270020 307.190369,753.512573 
z"/>
<path fill="#141414" opacity="1.000000" stroke="none" 
	d="
M678.918823,811.835938 
	C679.531128,812.102905 680.059570,812.280457 680.049805,812.419983 
	C679.734741,816.892761 675.568970,814.794128 673.384888,816.135132 
	C672.696045,816.558105 670.455627,815.813843 670.060852,815.031067 
	C669.494873,813.908752 669.540833,812.024780 670.148987,810.918945 
	C670.571045,810.151733 672.446533,809.723999 673.553040,809.899292 
	C675.283203,810.173462 676.912170,811.086426 678.918823,811.835938 
z"/>
<path fill="#0C0C0C" opacity="1.000000" stroke="none" 
	d="
M647.640259,535.109680 
	C644.618774,534.775818 642.028687,534.476807 638.316711,534.048218 
	C639.449463,532.178589 640.206238,529.986572 640.851990,530.018860 
	C644.665955,530.209167 649.192139,527.955383 652.306702,533.061462 
	C650.828430,533.788635 649.450073,534.466614 647.640259,535.109680 
z"/>
<path fill="#121212" opacity="1.000000" stroke="none" 
	d="
M411.738647,685.681396 
	C410.476746,687.790955 409.327148,689.550232 408.177521,691.309570 
	C407.399445,690.950256 406.621368,690.591003 405.843292,690.231689 
	C405.568573,687.401672 405.162964,684.572021 405.154480,681.741211 
	C405.153137,681.295288 407.527771,680.226807 407.817444,680.498352 
	C409.336853,681.922791 410.538727,683.685852 411.738647,685.681396 
z"/>
<path fill="#161616" opacity="1.000000" stroke="none" 
	d="
M667.402588,730.802368 
	C668.036377,731.088379 668.367432,731.182617 668.617859,731.379395 
	C670.132202,732.569397 671.628113,733.782715 673.130188,734.988281 
	C670.889771,735.298218 668.638245,735.896423 666.413208,735.810181 
	C665.074524,735.758301 663.777222,734.640015 660.982910,733.282837 
	C663.699402,732.109985 665.380920,731.383972 667.402588,730.802368 
z"/>
<path fill="#1E1E1E" opacity="1.000000" stroke="none" 
	d="
M579.097656,521.662781 
	C581.952454,521.342529 584.547791,521.342529 587.900940,521.342529 
	C587.627563,522.998901 587.416687,525.913879 587.101746,525.925171 
	C584.662659,526.012634 582.154114,525.725952 579.787292,525.100464 
	C579.234863,524.954468 579.142334,523.068481 579.097656,521.662781 
z"/>
<path fill="#1E1E1E" opacity="1.000000" stroke="none" 
	d="
M411.663696,583.259399 
	C411.025330,586.565308 405.146301,589.396545 403.231537,587.565735 
	C402.671112,587.029907 403.082855,584.247620 403.469757,584.149170 
	C406.071350,583.487549 408.786285,583.271729 411.663696,583.259399 
z"/>
<path fill="#1E1E1E" opacity="1.000000" stroke="none" 
	d="
M402.891663,646.935669 
	C400.962555,647.294739 399.370880,647.501160 397.559540,647.736084 
	C400.414246,641.039795 403.570404,639.831482 408.267700,643.691956 
	C406.511261,644.769470 404.870148,645.776245 402.891663,646.935669 
z"/>
<path fill="#121212" opacity="1.000000" stroke="none" 
	d="
M654.907471,703.394592 
	C652.389954,704.514099 650.620117,704.393982 650.318542,701.325012 
	C650.117249,699.276611 649.682190,697.251099 649.221558,694.412964 
	C653.771057,696.418762 656.009216,698.714111 654.907471,703.394592 
z"/>
<path fill="#121212" opacity="1.000000" stroke="none" 
	d="
M507.504333,440.205566 
	C509.416809,441.188446 510.957336,442.074432 512.829102,443.150879 
	C512.187805,444.600525 511.639008,445.841248 510.698730,447.966888 
	C508.205994,446.092102 506.097626,444.506409 503.989288,442.920715 
	C505.036957,441.983307 506.084656,441.045959 507.504333,440.205566 
z"/>
<path fill="#121212" opacity="1.000000" stroke="none" 
	d="
M623.984131,613.687927 
	C627.364990,610.962402 628.980835,611.510437 632.316223,616.131897 
	C626.628418,619.083862 626.051025,618.941528 623.984131,613.687927 
z"/>
<path fill="#121212" opacity="1.000000" stroke="none" 
	d="
M521.943909,462.123840 
	C520.416321,461.163757 519.243225,460.350494 518.070068,459.537262 
	C518.094788,459.073242 518.119568,458.609222 518.144287,458.145203 
	C520.948425,458.145203 523.760193,458.050049 526.546021,458.275391 
	C526.865295,458.301208 527.039734,460.118011 527.281250,461.104431 
	C525.620300,461.493195 523.959290,461.881927 521.943909,462.123840 
z"/>
<path fill="#1A1A1A" opacity="1.000000" stroke="none" 
	d="
M576.131653,792.409058 
	C574.155334,792.822388 572.503662,793.483459 570.932678,793.328125 
	C569.851440,793.221252 568.882080,791.982483 567.862732,791.249695 
	C568.985779,790.563782 570.179382,789.214294 571.217651,789.324890 
	C573.671021,789.585999 576.050415,790.541687 579.430054,791.488281 
	C577.741699,791.959473 577.116150,792.134094 576.131653,792.409058 
z"/>
<path fill="#252525" opacity="1.000000" stroke="none" 
	d="
M641.062683,750.288940 
	C641.692871,748.474915 642.250305,747.031616 643.105408,744.817627 
	C644.240051,748.188599 645.050415,750.596313 645.947998,753.262939 
	C643.232483,753.657471 640.728027,754.668091 641.062683,750.288940 
z"/>
<path fill="#161616" opacity="1.000000" stroke="none" 
	d="
M640.801392,637.149536 
	C642.402222,639.117310 643.593811,641.091675 645.254089,643.842529 
	C642.343689,643.842529 640.953430,643.842529 638.575256,643.842529 
	C639.250366,641.357971 639.821228,639.257080 640.801392,637.149536 
z"/>
<path fill="#252525" opacity="1.000000" stroke="none" 
	d="
M668.014648,782.701538 
	C671.600830,785.749207 668.167542,786.605225 666.722168,786.669128 
	C665.094116,786.741211 663.401123,785.346008 661.736389,784.588989 
	C661.798218,784.046326 661.860107,783.503601 661.921936,782.960938 
	C663.842651,782.813904 665.763367,782.666870 668.014648,782.701538 
z"/>
<path fill="#0F0F0F" opacity="1.000000" stroke="none" 
	d="
M612.678467,266.119904 
	C611.731750,264.761536 611.087585,263.683716 609.838135,261.593231 
	C613.312073,261.958893 615.754822,262.216034 618.197632,262.473145 
	C618.291626,263.178772 618.385620,263.884369 618.479675,264.589966 
	C616.646790,265.193481 614.813904,265.796967 612.678467,266.119904 
z"/>
<path fill="#1A1A1A" opacity="1.000000" stroke="none" 
	d="
M671.043701,540.984619 
	C672.392761,541.812073 673.354736,542.646362 674.977295,544.053467 
	C673.169373,545.092285 671.657532,546.093628 670.010803,546.763000 
	C669.766052,546.862427 668.258545,545.195129 668.419739,544.694275 
	C668.849609,543.358398 669.870667,542.212769 671.043701,540.984619 
z"/>
<path fill="#121212" opacity="1.000000" stroke="none" 
	d="
M490.084015,458.961029 
	C488.581024,452.339844 493.526825,455.758972 495.835144,454.814056 
	C496.096527,455.325867 496.357880,455.837677 496.619263,456.349487 
	C494.580200,457.240570 492.541107,458.131653 490.084015,458.961029 
z"/>
</svg>