<svg version="1.1" id="Layer_1" xmlns="http://www.w3.org/2000/svg" xmlns:xlink="http://www.w3.org/1999/xlink" x="0px" y="0px"
	 width="100%" viewBox="0 0 489 381" enable-background="new 0 0 489 381" xml:space="preserve">
<path fill="#000000" opacity="1.000000" stroke="none" 
	d="
M259.000000,382.000000 
	C174.024261,382.000000 89.548500,381.977631 5.072906,382.084656 
	C1.809565,382.088806 0.892618,381.648895 0.896195,378.075012 
	C1.020627,253.777481 1.023363,129.479813 0.888930,5.182333 
	C0.884832,1.393369 1.890928,0.916004 5.315394,0.918018 
	C165.436020,1.012207 325.556702,1.011889 485.677307,0.919703 
	C489.082123,0.917742 490.116699,1.365888 490.112518,5.175041 
	C489.976196,129.472519 489.979614,253.770187 490.102997,378.067719 
	C490.106537,381.626648 489.213409,382.090881 485.934387,382.086029 
	C410.456360,381.974518 334.978180,382.000000 259.000000,382.000000 
z"/>
<path fill="#FCFCFC" opacity="1.000000" stroke="none" 
	d="
M162.998322,289.004639 
	C156.166397,289.004639 149.833923,289.023346 143.501602,288.999359 
	C137.243408,288.975677 135.699020,287.508118 136.094254,281.329132 
	C137.455383,260.049805 138.924774,238.777359 140.365723,217.503159 
	C142.234390,189.913925 144.115570,162.325516 145.990845,134.736725 
	C146.329758,129.750687 146.685272,124.765671 146.997711,119.777969 
	C147.238541,115.933258 149.219955,114.091202 153.096375,114.107307 
	C163.094727,114.148842 173.094101,114.048828 183.091599,114.150383 
	C188.330261,114.203598 189.638458,115.879280 189.286850,121.342949 
	C188.131424,139.297348 187.057037,157.257538 185.761383,175.201767 
	C185.544312,178.208145 186.078369,178.977188 189.281067,179.182877 
	C198.654007,179.784866 207.879944,177.874832 217.187592,178.080139 
	C220.362427,178.150177 220.180283,176.363312 220.302521,174.322403 
	C221.388062,156.196274 222.431488,138.067276 223.622696,119.948013 
	C224.055344,113.366959 224.613693,113.007881 231.245865,112.998878 
	C241.077744,112.985542 250.909790,112.965080 260.741486,113.007294 
	C266.308899,113.031197 267.987335,114.855263 267.569519,120.206894 
	C263.481659,172.565155 261.750397,225.005356 262.068878,277.518127 
	C262.121277,286.160126 261.677795,286.565826 253.152481,286.571228 
	C243.320587,286.577484 233.488678,286.580872 223.656799,286.570099 
	C215.676193,286.561371 215.504364,285.788910 215.444992,277.731659 
	C215.346359,264.348236 216.501251,251.041641 217.007507,237.698517 
	C217.247513,231.372726 217.555099,225.045563 218.038422,218.734818 
	C218.232849,216.196381 217.461182,215.652542 215.012558,215.900803 
	C205.191681,216.896545 195.715088,219.178680 186.437927,222.546783 
	C183.707321,223.538147 184.146408,225.361984 184.113251,227.269943 
	C183.797745,245.430649 183.505829,263.591766 183.186646,281.752411 
	C183.071915,288.281372 182.369537,288.972992 175.996033,289.001099 
	C171.830032,289.019470 167.663895,289.004608 162.998322,289.004639 
z"/>
<path fill="#38B5FD" opacity="1.000000" stroke="none" 
	d="
M62.569969,155.581238 
	C70.467117,149.159256 77.942093,142.769058 85.765930,136.839157 
	C93.643204,130.868759 103.843102,134.017868 105.054871,142.613937 
	C105.874611,148.429016 104.661781,153.806015 100.471802,158.338989 
	C93.789955,165.567856 86.536179,172.187836 79.242401,178.771820 
	C71.711052,185.570251 64.157158,192.343689 56.533596,199.199585 
	C58.006660,201.094711 60.108711,201.195923 61.852184,201.811234 
	C79.708916,208.113129 97.603859,214.306763 115.488586,220.529327 
	C116.429062,220.856552 117.399811,221.110947 118.312263,221.502304 
	C130.020905,226.524155 139.777969,252.912537 134.159286,264.324554 
	C131.625153,269.471588 123.233955,272.252777 116.114006,270.484070 
	C110.410477,269.067230 105.907501,265.634003 101.631706,261.948273 
	C78.532600,242.036926 51.909981,230.253342 21.593618,226.808945 
	C16.383612,226.217026 11.649101,224.320847 7.300924,221.336884 
	C3.507404,218.733582 2.224847,215.521057 3.646199,211.027695 
	C5.511665,205.130325 8.747414,200.282501 13.503428,196.345215 
	C29.790958,182.861359 46.038189,169.328827 62.569969,155.581238 
z"/>
<path fill="#37B3FB" opacity="1.000000" stroke="none" 
	d="
M351.837585,101.362228 
	C359.184509,104.659279 361.118286,104.050583 365.201202,96.589333 
	C367.193817,92.948044 368.993286,89.201035 370.878998,85.501282 
	C372.815918,81.701035 376.010223,80.504074 380.040619,81.139046 
	C381.185944,81.319489 382.317627,81.631355 383.430420,81.966469 
	C395.436676,85.582123 396.472626,88.536995 389.729492,98.751175 
	C376.135132,119.343155 362.447083,139.952225 352.101135,162.393814 
	C338.537872,191.814087 320.679047,218.642395 303.725800,246.057312 
	C294.806061,260.481293 286.965210,275.533173 282.616272,292.115448 
	C281.776184,295.318634 281.608948,298.706757 279.989868,301.695312 
	C277.801514,305.734741 274.598114,306.390259 270.972717,303.546814 
	C265.372009,299.154083 263.931946,294.702026 265.781219,287.771515 
	C270.770477,269.073425 279.762970,252.183792 290.165771,236.124329 
	C306.180878,211.400711 321.458221,186.285767 334.602356,159.907959 
	C338.961426,151.160202 344.037903,142.693253 344.667786,132.532761 
	C344.854736,129.517334 346.231171,126.657555 348.113159,124.340309 
	C353.728058,117.426956 355.607025,110.055550 351.837585,101.362228 
z"/>
<path fill="#37B3FB" opacity="1.000000" stroke="none" 
	d="
M438.919250,207.918243 
	C445.044617,201.198242 450.935150,194.745071 457.245911,187.831543 
	C442.378082,183.206696 425.327148,184.042480 418.323029,166.698669 
	C423.411285,164.642334 427.923523,164.972397 432.798279,167.247162 
	C440.944977,171.048721 449.842041,172.729675 458.515808,174.994202 
	C468.028900,177.477875 476.487518,181.796524 483.328918,189.052109 
	C485.308380,191.151413 485.402435,192.596878 483.315125,194.842392 
	C466.089478,213.373428 448.970703,232.004242 431.902161,250.680313 
	C430.163757,252.582458 428.963226,253.134827 426.619446,251.486420 
	C422.001709,248.238739 417.201202,245.220932 412.296722,242.422775 
	C409.545868,240.853302 409.839111,239.762665 411.757416,237.692947 
	C420.808838,227.927170 429.721985,218.033279 438.919250,207.918243 
z"/>
<path fill="#37B3FB" opacity="1.000000" stroke="none" 
	d="
M352.035583,100.952057 
	C351.727905,101.312965 351.415894,101.279755 351.345062,100.793503 
	C351.268280,100.266388 351.530396,100.171631 351.948639,100.783051 
	C351.977203,101.026115 352.017517,100.977814 352.035583,100.952057 
z"/>
<path fill="#1B1B1B" opacity="1.000000" stroke="none" 
	d="
M177.717834,122.567841 
	C179.706146,123.168945 181.805695,122.152397 183.303101,124.808235 
	C176.358078,123.385132 169.759796,124.982117 163.254150,123.668869 
	C167.830063,121.396843 172.694046,123.792458 177.717834,122.567841 
z"/>
<path fill="#1A1A1A" opacity="1.000000" stroke="none" 
	d="
M213.183258,197.183853 
	C210.246521,196.473251 207.911423,195.434875 206.035095,193.463470 
	C210.297409,191.452469 213.371078,192.419418 214.996674,196.390625 
	C215.276627,197.074554 214.195145,197.110016 213.183258,197.183853 
z"/>
<path fill="#292929" opacity="1.000000" stroke="none" 
	d="
M162.111343,220.363525 
	C164.526596,220.201675 165.356674,221.014328 163.924927,222.826874 
	C163.293884,223.625748 162.250748,224.676010 161.092194,223.423920 
	C159.974213,222.215729 159.326370,220.947006 162.111343,220.363525 
z"/>
<path fill="#343434" opacity="1.000000" stroke="none" 
	d="
M257.127441,211.390884 
	C260.314697,212.370499 258.483337,214.342697 258.438171,216.809540 
	C256.140808,215.061234 257.005035,213.249969 257.127441,211.390884 
z"/>
</svg>